<svg xmlns="http://www.w3.org/2000/svg" viewBox="0 0 16 12.98"><defs><style>.cls-1{fill:#fff;fill-rule:evenodd;}</style></defs><g id="Layer_2" data-name="Layer 2"><g id="Layer_1-2" data-name="Layer 1"><path id="Path_2" data-name="Path 2" class="cls-1" d="M5.07,13A9.25,9.25,0,0,0,14.4,3.81V3.2A7.14,7.14,0,0,0,16,1.51,7.14,7.14,0,0,1,14.13,2,3.47,3.47,0,0,0,15.56.27a8.82,8.82,0,0,1-2.05.8A3.15,3.15,0,0,0,11.11,0,3.35,3.35,0,0,0,7.82,3.29,1.72,1.72,0,0,0,7.91,4,9.19,9.19,0,0,1,1.15.53,3.46,3.46,0,0,0,.71,2.22,3.53,3.53,0,0,0,2.13,5,3,3,0,0,1,.62,4.53h0a3.24,3.24,0,0,0,2.67,3.2,2.67,2.67,0,0,1-.89.09,1.32,1.32,0,0,1-.62-.09,3.37,3.37,0,0,0,3.11,2.32A6.74,6.74,0,0,1,.8,11.47a2.69,2.69,0,0,1-.8-.09A8.38,8.38,0,0,0,5.07,13"/></g></g></svg>