<svg xmlns="http://www.w3.org/2000/svg" viewBox="0 0 16.03 16.03"><defs><style>.cls-1{fill:#fff;fill-rule:evenodd;}</style></defs><g id="Layer_2" data-name="Layer 2"><g id="Layer_1-2" data-name="Layer 1"><path id="Path_3" data-name="Path 3" class="cls-1" d="M8,1.44a24.48,24.48,0,0,1,3.2.09,4.1,4.1,0,0,1,1.51.26,3.14,3.14,0,0,1,1.51,1.52,4.29,4.29,0,0,1,.27,1.51c0,.8.08,1.06.08,3.2a26.36,26.36,0,0,1-.08,3.2,4.33,4.33,0,0,1-.27,1.51,3.16,3.16,0,0,1-1.51,1.51,4.33,4.33,0,0,1-1.51.27c-.8,0-1.07.08-3.2.08a26.25,26.25,0,0,1-3.2-.08,4.29,4.29,0,0,1-1.51-.27,3.14,3.14,0,0,1-1.52-1.51,4.1,4.1,0,0,1-.26-1.51c0-.8-.09-1.07-.09-3.2a24.39,24.39,0,0,1,.09-3.2,4.07,4.07,0,0,1,.26-1.51,3.27,3.27,0,0,1,.63-.89,1.51,1.51,0,0,1,.89-.63,4.07,4.07,0,0,1,1.51-.26A24.39,24.39,0,0,1,8,1.44M8,0A25.78,25.78,0,0,0,4.73.11a5.27,5.27,0,0,0-2,.35,3.53,3.53,0,0,0-1.42.89A3.46,3.46,0,0,0,.46,2.77a4,4,0,0,0-.35,2A25.78,25.78,0,0,0,0,8a25.88,25.88,0,0,0,.09,3.29,5.22,5.22,0,0,0,.35,1.95,3.46,3.46,0,0,0,.89,1.42,3.42,3.42,0,0,0,1.42.89,5.49,5.49,0,0,0,2,.36A25.78,25.78,0,0,0,8,16a25.88,25.88,0,0,0,3.29-.09,5.43,5.43,0,0,0,1.95-.36,3.68,3.68,0,0,0,2.31-2.31,5.45,5.45,0,0,0,.36-2c0-.88.09-1.15.09-3.28a25.78,25.78,0,0,0-.09-3.29,5.49,5.49,0,0,0-.36-2,3.36,3.36,0,0,0-.89-1.42A3.46,3.46,0,0,0,13.26.46,5.22,5.22,0,0,0,11.31.11,25.88,25.88,0,0,0,8,0M8,3.93a4,4,0,0,0-4.09,4V8A4.09,4.09,0,1,0,8,3.93H8m0,6.75A2.62,2.62,0,0,1,5.35,8.11V8A2.62,2.62,0,0,1,7.92,5.35H8a2.61,2.61,0,0,1,2.66,2.57V8a2.61,2.61,0,0,1-2.57,2.66H8m4.26-7.91a1,1,0,1,0,1,1h0a1,1,0,0,0-1-1"/></g></g></svg>